<svg width="565" height="142" viewBox="0 0 565 142" fill="none" xmlns="http://www.w3.org/2000/svg">
<path d="M84.5 82.375H57V70.5H97.875V94.5V103C84.875 110.667 70.875 114.5 55.875 114.5C42.2917 114.5 31.25 111.25 22.75 104.75C12 96.5 6.625 85.0417 6.625 70.375C6.625 56.7083 11.375 45.8333 20.875 37.75C29.9583 30.0833 42.0417 26.25 57.125 26.25C61.9583 26.25 66.5 26.7083 70.75 27.625C75 28.4583 79.8333 29.9583 85.25 32.125C88 33.2083 90.5 34.6667 92.75 36.5L87.5 50C82.5 46.6667 77.25 44.2917 71.75 42.875C66.25 41.375 61.25 40.625 56.75 40.625C47.5833 40.625 40 43.125 34 48.125C27.0833 53.7917 23.625 61.2917 23.625 70.625C23.625 79.625 27 86.875 33.75 92.375C39.8333 97.4583 47.8333 100 57.75 100C62.5 100 67.2083 99.4583 71.875 98.375C76.5417 97.2917 80.75 95.8333 84.5 94V82.375ZM181 91.25H141L130.125 113H114.875L154.375 27.75H169.125L209.625 113H191.875L181 91.25ZM176.5 79.625L161.25 49.25L145.75 79.625H176.5ZM243.125 78.25V113H226.5V27.75H274.875C281.292 27.75 286.375 28.125 290.125 28.875C293.875 29.625 297.125 30.9167 299.875 32.75C302.958 34.9167 305.292 37.875 306.875 41.625C308.292 45.2083 309 49.0417 309 53.125C309 67.0417 301.042 75.1667 285.125 77.5L309.5 113H291.375L267.375 78.25H243.125ZM243.125 64.125H272.875C277.208 64.125 280.25 64 282 63.75C283.833 63.5 285.583 63 287.25 62.25C290.75 60.5 292.5 57.4167 292.5 53C292.5 48.5 290.75 45.4167 287.25 43.75C285.667 42.9167 283.958 42.375 282.125 42.125C280.375 41.875 277.292 41.75 272.875 41.75H243.125V64.125Z" fill="black"/>
<path d="M363.094 112.156L338.812 68.8438V113H327.469V49.0625H343.031L364.312 87.4062L386.719 49.0625H401.25V113H388.781V68.8438L363.094 112.156ZM479.531 93.125L484.688 102.125C483.438 103.375 481.5 104.75 478.875 106.25C473.562 109.375 469.094 111.469 465.469 112.531C461.906 113.594 457.625 114.125 452.625 114.125C442.688 114.125 434.562 111.75 428.25 107C424.5 104.188 421.562 100.719 419.438 96.5938C416.938 91.9062 415.688 86.7188 415.688 81.0312C415.688 73.2812 417.906 66.5312 422.344 60.7812C429.031 52.2188 439.125 47.9375 452.625 47.9375C457.625 47.9375 461.906 48.4688 465.469 49.5312C469.031 50.5938 473.5 52.6875 478.875 55.8125C481.438 57.25 483.375 58.6875 484.688 60.125L479.531 69.125C476.781 66.4375 474.375 64.5312 472.312 63.4062C466.688 60.2812 460.719 58.7188 454.406 58.7188C446.906 58.7188 440.906 60.5625 436.406 64.25C431.094 68.5 428.438 74.0938 428.438 81.0312C428.438 87.9062 431.094 93.5 436.406 97.8125C440.906 101.438 446.906 103.25 454.406 103.25C460.719 103.25 466.688 101.688 472.312 98.5625C474.312 97.4375 476.719 95.625 479.531 93.125ZM513.188 87.0312V113H500.719V49.0625H536.906C541.531 49.0625 545.156 49.375 547.781 50C550.469 50.625 552.812 51.6875 554.812 53.1875C556.875 54.8125 558.5 56.9062 559.688 59.4688C560.812 62.1562 561.375 65 561.375 68C561.375 72.3125 560.25 76.0938 558 79.3438C556.125 82.1562 553.594 84.1562 550.406 85.3438C547.281 86.4688 542.781 87.0312 536.906 87.0312H513.188ZM513.188 76.5312H535.312C539.688 76.5312 542.781 76.0625 544.594 75.125C545.844 74.5625 546.812 73.625 547.5 72.3125C548.25 71 548.625 69.5625 548.625 68C548.625 66.5 548.25 65.0938 547.5 63.7812C546.812 62.4688 545.844 61.5312 544.594 60.9688C542.781 60.0312 539.688 59.5625 535.312 59.5625H513.188V76.5312Z" fill="black"/>
<rect width="232" height="24" transform="translate(328 16)" fill="#367BBE"/>
</svg>
