<svg width="170" height="32" viewBox="0 0 170 32" fill="none" xmlns="http://www.w3.org/2000/svg">
<g clip-path="url(#clip0_13_13)">
<rect width="170" height="32" rx="7.5" fill="#1A1A1A"/>
<line x1="31.5" y1="32" x2="31.5" stroke="#3A3A3A"/>
<path d="M47.6845 21H44.2342V10.8182H47.7541C48.765 10.8182 49.6334 11.022 50.3592 11.4297C51.0884 11.834 51.6485 12.4157 52.0396 13.1747C52.4307 13.9337 52.6263 14.8419 52.6263 15.8991C52.6263 16.9598 52.4291 17.8712 52.0347 18.6335C51.6436 19.3958 51.0785 19.9808 50.3394 20.3885C49.6036 20.7962 48.7186 21 47.6845 21ZM46.0787 19.4041H47.595C48.3043 19.4041 48.8959 19.2749 49.3699 19.0163C49.8439 18.7545 50.2002 18.3651 50.4388 17.848C50.6774 17.3277 50.7967 16.678 50.7967 15.8991C50.7967 15.1203 50.6774 14.474 50.4388 13.9602C50.2002 13.4432 49.8472 13.0571 49.3798 12.8018C48.9158 12.5433 48.3391 12.4141 47.6497 12.4141H46.0787V19.4041ZM57.6799 21.1491C56.9143 21.1491 56.2531 20.9901 55.6962 20.6719C55.1427 20.3504 54.7168 19.8963 54.4185 19.3097C54.1203 18.7197 53.9711 18.0253 53.9711 17.2266C53.9711 16.4411 54.1203 15.7517 54.4185 15.1584C54.7202 14.5618 55.1411 14.0978 55.6813 13.7663C56.2216 13.4316 56.8563 13.2642 57.5854 13.2642C58.0561 13.2642 58.5002 13.3404 58.9178 13.4929C59.3388 13.642 59.71 13.8741 60.0315 14.1889C60.3563 14.5038 60.6115 14.9048 60.7971 15.392C60.9827 15.8759 61.0755 16.4527 61.0755 17.1222V17.674H54.8163V16.4609H59.3504C59.347 16.1162 59.2725 15.8097 59.1266 15.5412C58.9808 15.2694 58.777 15.0556 58.5151 14.8999C58.2566 14.7441 57.955 14.6662 57.6103 14.6662C57.2424 14.6662 56.9193 14.7557 56.6408 14.9347C56.3624 15.1103 56.1453 15.3423 55.9896 15.6307C55.8371 15.9157 55.7592 16.2289 55.7559 16.5703V17.6293C55.7559 18.0734 55.8371 18.4545 55.9995 18.7727C56.1619 19.0876 56.389 19.3295 56.6806 19.4986C56.9723 19.6643 57.3137 19.7472 57.7048 19.7472C57.9666 19.7472 58.2036 19.7107 58.4157 19.6378C58.6278 19.5616 58.8118 19.4505 58.9676 19.3047C59.1233 19.1589 59.241 18.9782 59.3205 18.7628L61.0009 18.9517C60.8949 19.3958 60.6927 19.7836 60.3944 20.1151C60.0994 20.4432 59.7216 20.6984 59.2609 20.8807C58.8002 21.0597 58.2732 21.1491 57.6799 21.1491ZM62.5981 23.8636V13.3636H64.3679V14.6264H64.4723C64.5651 14.4408 64.6961 14.2436 64.8651 14.0348C65.0341 13.8227 65.2628 13.642 65.5512 13.4929C65.8395 13.3404 66.2074 13.2642 66.6549 13.2642C67.2448 13.2642 67.7768 13.415 68.2508 13.7166C68.728 14.0149 69.1059 14.4574 69.3843 15.044C69.666 15.6274 69.8069 16.3433 69.8069 17.1918C69.8069 18.0303 69.6693 18.7429 69.3942 19.3295C69.1191 19.9162 68.7446 20.3636 68.2706 20.6719C67.7967 20.9801 67.2598 21.1342 66.6598 21.1342C66.2223 21.1342 65.8594 21.0613 65.5711 20.9155C65.2827 20.7696 65.0507 20.594 64.875 20.3885C64.7027 20.1797 64.5685 19.9825 64.4723 19.7969H64.3978V23.8636H62.5981ZM64.363 17.1818C64.363 17.6757 64.4326 18.1082 64.5718 18.4794C64.7143 18.8506 64.9181 19.1406 65.1833 19.3494C65.4517 19.5549 65.7766 19.6577 66.1577 19.6577C66.5554 19.6577 66.8885 19.5516 67.157 19.3395C67.4255 19.1241 67.6276 18.8307 67.7635 18.4595C67.9027 18.085 67.9723 17.6591 67.9723 17.1818C67.9723 16.7079 67.9044 16.2869 67.7685 15.919C67.6326 15.5511 67.4304 15.2628 67.162 15.054C66.8935 14.8452 66.5588 14.7408 66.1577 14.7408C65.7732 14.7408 65.4468 14.8419 65.1783 15.044C64.9098 15.2462 64.706 15.5296 64.5668 15.8942C64.4309 16.2588 64.363 16.688 64.363 17.1818ZM73.1478 10.8182V21H71.3481V10.8182H73.1478ZM78.3294 21.1491C77.5837 21.1491 76.9374 20.9851 76.3905 20.657C75.8436 20.3288 75.4194 19.8698 75.1178 19.2798C74.8195 18.6899 74.6703 18.0005 74.6703 17.2116C74.6703 16.4228 74.8195 15.7318 75.1178 15.1385C75.4194 14.5452 75.8436 14.0845 76.3905 13.7564C76.9374 13.4283 77.5837 13.2642 78.3294 13.2642C79.0752 13.2642 79.7215 13.4283 80.2683 13.7564C80.8152 14.0845 81.2378 14.5452 81.5361 15.1385C81.8377 15.7318 81.9885 16.4228 81.9885 17.2116C81.9885 18.0005 81.8377 18.6899 81.5361 19.2798C81.2378 19.8698 80.8152 20.3288 80.2683 20.657C79.7215 20.9851 79.0752 21.1491 78.3294 21.1491ZM78.3394 19.7074C78.7437 19.7074 79.0818 19.5964 79.3536 19.3743C79.6253 19.1489 79.8275 18.8473 79.9601 18.4695C80.096 18.0916 80.1639 17.6707 80.1639 17.2067C80.1639 16.7393 80.096 16.3168 79.9601 15.9389C79.8275 15.5578 79.6253 15.2545 79.3536 15.0291C79.0818 14.8037 78.7437 14.6911 78.3394 14.6911C77.9251 14.6911 77.5804 14.8037 77.3053 15.0291C77.0335 15.2545 76.8296 15.5578 76.6938 15.9389C76.5612 16.3168 76.4949 16.7393 76.4949 17.2067C76.4949 17.6707 76.5612 18.0916 76.6938 18.4695C76.8296 18.8473 77.0335 19.1489 77.3053 19.3743C77.5804 19.5964 77.9251 19.7074 78.3394 19.7074ZM84.3749 23.8636C84.1296 23.8636 83.9026 23.8438 83.6938 23.804C83.4883 23.7675 83.3242 23.7244 83.2016 23.6747L83.6192 22.2727C83.881 22.349 84.1147 22.3854 84.3202 22.3821C84.5257 22.3788 84.7063 22.3142 84.8621 22.1882C85.0212 22.0656 85.1554 21.8601 85.2648 21.5717L85.4189 21.1591L82.6497 13.3636H84.5588L86.3188 19.1307H86.3983L88.1632 13.3636H90.0773L87.0198 21.9247C86.8772 22.3291 86.6883 22.6754 86.453 22.9638C86.2177 23.2554 85.9293 23.4775 85.5879 23.63C85.2499 23.7857 84.8455 23.8636 84.3749 23.8636ZM98.1263 21.1491C97.3805 21.1491 96.7342 20.9851 96.1874 20.657C95.6405 20.3288 95.2162 19.8698 94.9146 19.2798C94.6163 18.6899 94.4672 18.0005 94.4672 17.2116C94.4672 16.4228 94.6163 15.7318 94.9146 15.1385C95.2162 14.5452 95.6405 14.0845 96.1874 13.7564C96.7342 13.4283 97.3805 13.2642 98.1263 13.2642C98.872 13.2642 99.5183 13.4283 100.065 13.7564C100.612 14.0845 101.035 14.5452 101.333 15.1385C101.635 15.7318 101.785 16.4228 101.785 17.2116C101.785 18.0005 101.635 18.6899 101.333 19.2798C101.035 19.8698 100.612 20.3288 100.065 20.657C99.5183 20.9851 98.872 21.1491 98.1263 21.1491ZM98.1362 19.7074C98.5406 19.7074 98.8787 19.5964 99.1504 19.3743C99.4222 19.1489 99.6244 18.8473 99.757 18.4695C99.8929 18.0916 99.9608 17.6707 99.9608 17.2067C99.9608 16.7393 99.8929 16.3168 99.757 15.9389C99.6244 15.5578 99.4222 15.2545 99.1504 15.0291C98.8787 14.8037 98.5406 14.6911 98.1362 14.6911C97.7219 14.6911 97.3772 14.8037 97.1021 15.0291C96.8304 15.2545 96.6265 15.5578 96.4906 15.9389C96.3581 16.3168 96.2918 16.7393 96.2918 17.2067C96.2918 17.6707 96.3581 18.0916 96.4906 18.4695C96.6265 18.8473 96.8304 19.1489 97.1021 19.3743C97.3772 19.5964 97.7219 19.7074 98.1362 19.7074ZM105.113 16.5256V21H103.313V13.3636H105.033V14.6612H105.123C105.298 14.2337 105.578 13.8939 105.963 13.642C106.351 13.3902 106.829 13.2642 107.4 13.2642C107.927 13.2642 108.386 13.3769 108.777 13.6023C109.171 13.8277 109.476 14.1541 109.691 14.5817C109.91 15.0092 110.018 15.5279 110.015 16.1378V21H108.215V16.4162C108.215 15.9058 108.082 15.5064 107.817 15.218C107.555 14.9297 107.192 14.7855 106.728 14.7855C106.414 14.7855 106.133 14.8551 105.888 14.9943C105.646 15.1302 105.456 15.3274 105.316 15.5859C105.181 15.8445 105.113 16.1577 105.113 16.5256ZM116.759 10.8182L119.408 18.8324H119.513L122.158 10.8182H124.186L120.597 21H118.32L114.735 10.8182H116.759ZM128.008 21.1491C127.242 21.1491 126.581 20.9901 126.024 20.6719C125.471 20.3504 125.045 19.8963 124.747 19.3097C124.448 18.7197 124.299 18.0253 124.299 17.2266C124.299 16.4411 124.448 15.7517 124.747 15.1584C125.048 14.5618 125.469 14.0978 126.009 13.7663C126.55 13.4316 127.184 13.2642 127.914 13.2642C128.384 13.2642 128.828 13.3404 129.246 13.4929C129.667 13.642 130.038 13.8741 130.36 14.1889C130.684 14.5038 130.94 14.9048 131.125 15.392C131.311 15.8759 131.404 16.4527 131.404 17.1222V17.674H125.144V16.4609H129.678C129.675 16.1162 129.601 15.8097 129.455 15.5412C129.309 15.2694 129.105 15.0556 128.843 14.8999C128.585 14.7441 128.283 14.6662 127.938 14.6662C127.571 14.6662 127.247 14.7557 126.969 14.9347C126.691 15.1103 126.473 15.3423 126.318 15.6307C126.165 15.9157 126.087 16.2289 126.084 16.5703V17.6293C126.084 18.0734 126.165 18.4545 126.328 18.7727C126.49 19.0876 126.717 19.3295 127.009 19.4986C127.3 19.6643 127.642 19.7472 128.033 19.7472C128.295 19.7472 128.532 19.7107 128.744 19.6378C128.956 19.5616 129.14 19.4505 129.296 19.3047C129.451 19.1589 129.569 18.9782 129.649 18.7628L131.329 18.9517C131.223 19.3958 131.021 19.7836 130.723 20.1151C130.428 20.4432 130.05 20.6984 129.589 20.8807C129.128 21.0597 128.601 21.1491 128.008 21.1491ZM132.926 21V13.3636H134.671V14.6364H134.751C134.89 14.1955 135.129 13.8558 135.467 13.6172C135.808 13.3752 136.197 13.2543 136.635 13.2543C136.734 13.2543 136.845 13.2592 136.968 13.2692C137.094 13.2758 137.198 13.2874 137.281 13.304V14.9595C137.205 14.933 137.084 14.9098 136.918 14.8899C136.756 14.8667 136.599 14.8551 136.446 14.8551C136.118 14.8551 135.823 14.9264 135.561 15.0689C135.303 15.2081 135.099 15.402 134.95 15.6506C134.8 15.8991 134.726 16.1858 134.726 16.5107V21H132.926ZM141.493 21.1491C140.731 21.1491 140.077 20.9818 139.53 20.647C138.986 20.3123 138.567 19.8499 138.272 19.2599C137.98 18.6667 137.834 17.9839 137.834 17.2116C137.834 16.4361 137.984 15.7517 138.282 15.1584C138.58 14.5618 139.001 14.0978 139.545 13.7663C140.091 13.4316 140.738 13.2642 141.484 13.2642C142.103 13.2642 142.652 13.3786 143.129 13.6072C143.61 13.8326 143.993 14.1525 144.278 14.5668C144.563 14.9777 144.725 15.4583 144.765 16.0085H143.045C142.975 15.6406 142.809 15.334 142.547 15.0888C142.289 14.8402 141.943 14.7159 141.508 14.7159C141.14 14.7159 140.817 14.8153 140.539 15.0142C140.261 15.2098 140.043 15.4915 139.888 15.8594C139.735 16.2273 139.659 16.6681 139.659 17.1818C139.659 17.7022 139.735 18.1496 139.888 18.5241C140.04 18.8954 140.254 19.1821 140.529 19.3842C140.807 19.5831 141.134 19.6825 141.508 19.6825C141.774 19.6825 142.011 19.6328 142.219 19.5334C142.431 19.4306 142.609 19.2831 142.751 19.0909C142.894 18.8987 142.992 18.665 143.045 18.3899H144.765C144.722 18.9302 144.563 19.4091 144.288 19.8267C144.012 20.241 143.638 20.5658 143.164 20.8011C142.69 21.0331 142.133 21.1491 141.493 21.1491ZM149.623 21.1491C148.858 21.1491 148.196 20.9901 147.64 20.6719C147.086 20.3504 146.66 19.8963 146.362 19.3097C146.064 18.7197 145.914 18.0253 145.914 17.2266C145.914 16.4411 146.064 15.7517 146.362 15.1584C146.664 14.5618 147.084 14.0978 147.625 13.7663C148.165 13.4316 148.8 13.2642 149.529 13.2642C149.999 13.2642 150.444 13.3404 150.861 13.4929C151.282 13.642 151.653 13.8741 151.975 14.1889C152.3 14.5038 152.555 14.9048 152.74 15.392C152.926 15.8759 153.019 16.4527 153.019 17.1222V17.674H146.76V16.4609H151.294C151.29 16.1162 151.216 15.8097 151.07 15.5412C150.924 15.2694 150.72 15.0556 150.458 14.8999C150.2 14.7441 149.898 14.6662 149.554 14.6662C149.186 14.6662 148.863 14.7557 148.584 14.9347C148.306 15.1103 148.089 15.3423 147.933 15.6307C147.78 15.9157 147.703 16.2289 147.699 16.5703V17.6293C147.699 18.0734 147.78 18.4545 147.943 18.7727C148.105 19.0876 148.332 19.3295 148.624 19.4986C148.916 19.6643 149.257 19.7472 149.648 19.7472C149.91 19.7472 150.147 19.7107 150.359 19.6378C150.571 19.5616 150.755 19.4505 150.911 19.3047C151.067 19.1589 151.184 18.9782 151.264 18.7628L152.944 18.9517C152.838 19.3958 152.636 19.7836 152.338 20.1151C152.043 20.4432 151.665 20.6984 151.204 20.8807C150.744 21.0597 150.217 21.1491 149.623 21.1491ZM156.341 10.8182V21H154.541V10.8182H156.341Z" fill="white"/>
<mask id="mask0_13_13" style="mask-type:luminance" maskUnits="userSpaceOnUse" x="10" y="10" width="12" height="12">
<path d="M10 10H22V22H10V10Z" fill="white"/>
</mask>
<g mask="url(#mask0_13_13)">
<path fill-rule="evenodd" clip-rule="evenodd" d="M16 10.75L22 21.25H10L16 10.75Z" fill="#EDEDED"/>
</g>
</g>
<rect x="0.5" y="0.5" width="169" height="31" rx="7" stroke="#3A3A3A"/>
<defs>
<clipPath id="clip0_13_13">
<rect width="170" height="32" rx="7.5" fill="white"/>
</clipPath>
</defs>
</svg>
